HIERARCHY
ROOT Hips
{
	OFFSET	0.00	0.00	0.00
	CHANNELS 6 Xposition Yposition Zposition Zrotation Xrotation Yrotation
	JOINT LeftUpLeg
	{
		OFFSET	 0.126116	-0.014019	-0.065224
		CHANNELS 3 Zrotation Xrotation Yrotation
		JOINT LeftLeg
		{
			OFFSET	 0.000000	 0.000000	 0.569914
			CHANNELS 3 Zrotation Xrotation Yrotation
			JOINT LeftFoot
			{
				OFFSET	 0.000000	 0.000000	 0.544423
				CHANNELS 3 Zrotation Xrotation Yrotation
				JOINT LeftToeBase
				{
					OFFSET	 0.000000	 0.000000	 0.207117
					CHANNELS 3 Zrotation Xrotation Yrotation
					End Site
					{
						OFFSET	 0.000000	 0.000000	 0.207117
					}
				}
			}
		}
	}
	JOINT RightUpLeg
	{
		OFFSET	-0.124023	-0.008373	-0.065224
		CHANNELS 3 Zrotation Xrotation Yrotation
		JOINT RightLeg
		{
			OFFSET	 0.000000	 0.000000	 0.570047
			CHANNELS 3 Zrotation Xrotation Yrotation
			JOINT RightFoot
			{
				OFFSET	 0.000000	 0.000000	 0.544354
				CHANNELS 3 Zrotation Xrotation Yrotation
				JOINT RightToeBase
				{
					OFFSET	 0.000000	 0.000000	 0.207540
					CHANNELS 3 Zrotation Xrotation Yrotation
					End Site
					{
						OFFSET	 0.000000	 0.000000	 0.207540
					}
				}
			}
		}
	}
	JOINT Spine
	{
		OFFSET	 0.000184	-0.007763	 0.117403
		CHANNELS 3 Zrotation Xrotation Yrotation
		JOINT Spine1
		{
			OFFSET	 0.000000	 0.000000	 0.137269
			CHANNELS 3 Zrotation Xrotation Yrotation
			JOINT Spine2
			{
				OFFSET	 0.000000	 0.000000	 0.156879
				CHANNELS 3 Zrotation Xrotation Yrotation
				JOINT LeftShoulder
				{
					OFFSET	 0.080501	-0.002496	 0.160144
					CHANNELS 3 Zrotation Xrotation Yrotation
					JOINT LeftArm
					{
						OFFSET	 0.000000	 0.000000	 0.164363
						CHANNELS 3 Zrotation Xrotation Yrotation
						JOINT LeftForeArm
						{
							OFFSET	 0.000000	 0.000000	 0.364576
							CHANNELS 3 Zrotation Xrotation Yrotation
							JOINT LeftHand
							{
								OFFSET	 0.000000	 0.000000	 0.360812
								CHANNELS 3 Zrotation Xrotation Yrotation
								JOINT LeftHandIndex1
								{
									OFFSET	 0.000000	 0.000000	 0.086006
									CHANNELS 3 Zrotation Xrotation Yrotation
									JOINT LeftHandIndex2
									{
										OFFSET	 0.000000	 0.000000	 0.047236
										CHANNELS 3 Zrotation Xrotation Yrotation
										JOINT LeftHandIndex3
										{
											OFFSET	-0.004284	-0.000551	 0.038166
											CHANNELS 3 Zrotation Xrotation Yrotation
											End Site
											{
												OFFSET	-0.004284	-0.000551	 0.038166
											}
										}
									}
								}
							}
						}
					}
				}
				JOINT Neck
				{
					OFFSET	 0.000000	 0.000000	 0.176489
					CHANNELS 3 Zrotation Xrotation Yrotation
					JOINT Head
					{
						OFFSET	 0.000000	-0.001747	 0.077940
						CHANNELS 3 Zrotation Xrotation Yrotation
						End Site
						{
							OFFSET	 0.000000	-0.001747	 0.077940
						}
					}
				}
				JOINT RightShoulder
				{
					OFFSET	-0.080363	 0.000306	 0.159706
					CHANNELS 3 Zrotation Xrotation Yrotation
					JOINT RightArm
					{
						OFFSET	 0.000000	 0.000000	 0.164196
						CHANNELS 3 Zrotation Xrotation Yrotation
						JOINT RightForeArm
						{
							OFFSET	 0.000000	 0.000000	 0.365611
							CHANNELS 3 Zrotation Xrotation Yrotation
							JOINT RightHand
							{
								OFFSET	 0.000000	 0.000000	 0.360648
								CHANNELS 3 Zrotation Xrotation Yrotation
								JOINT RightHandIndex1
								{
									OFFSET	 0.000000	 0.000000	 0.069977
									CHANNELS 3 Zrotation Xrotation Yrotation
									JOINT RightHandIndex2
									{
										OFFSET	 0.000000	 0.000000	 0.052305
										CHANNELS 3 Zrotation Xrotation Yrotation
										JOINT RightHandIndex3
										{
											OFFSET	 0.009002	-0.000782	 0.042196
											CHANNELS 3 Zrotation Xrotation Yrotation
											End Site
											{
												OFFSET	 0.009002	-0.000782	 0.042196
											}
										}
									}
								}
							}
						}
					}
				}
			}
		}
	}
}
MOTION
Frames:    8
Frame Time: 0.03333334
 0.000294	 0.019722	 1.271103	-0.002484	 0.004581	 0.174485	-10.902810	-1.837155	 179.469100	 1.464216	-12.661490	-0.740508	-4.522076	 71.867670	-1.864526	-2.385833	 28.452760	 0.000004	 10.744980	-1.937521	-179.706800	-1.456081	-12.264060	 0.703356	 4.341263	 71.488200	 1.858897	 2.384658	 28.388730	 0.000004	-4.225920	 2.574958	 0.278355	-2.136485	 4.177132	-0.765135	 6.465302	-5.160430	 1.434893	-91.776220	 78.527490	-180.000000	 73.367880	 46.252350	-57.401130	-8.106773	 1.596442	-3.987292	-30.174060	-10.402210	-4.422581	-2.635965	 4.993658	 6.788941	-5.165319	 0.784187	 3.516649	-5.225038	 0.466231	 0.424329	-0.000002	-3.783157	-0.089647	 6.267337	 4.331004	-0.237237	 89.782170	 78.203900	 179.999900	-64.866670	 42.184300	 56.274430	 7.361076	 4.647891	 10.791470	 30.296500	-11.293610	 8.996483	 6.112037	 4.509576	-0.364401	 4.968462	 1.518543	-9.347576	 5.168945	 0.703820	 2.021906
 0.000283	 0.019729	 1.271105	-0.001606	 0.005996	 0.170975	-11.031330	-1.850233	 179.482600	 1.463861	-12.688370	-0.742132	-4.524434	 71.884930	-1.860976	-2.385833	 28.452760	 0.000004	 10.874210	-1.957831	-179.714400	-1.455534	-12.307580	 0.705928	 4.349056	 71.513730	 1.852019	 2.384658	 28.388730	 0.000004	-4.053271	 2.423515	 0.250817	-2.056454	 4.701442	-0.698050	 6.218892	-5.851678	 1.422984	-91.776180	 78.527470	 180.000000	 73.564470	 46.386630	-57.274800	-8.093591	 1.618525	-4.042584	-30.186790	-10.564900	-4.424915	-2.635965	 4.993658	 6.788941	-5.165319	 0.784187	 3.516649	-5.225038	 0.466231	 0.424329	-0.000002	-3.783157	-0.089647	 6.000875	 4.042276	-0.211978	 89.782130	 78.203830	 180.000000	-65.043960	 41.730720	 56.755210	 6.685780	 4.429001	 10.634160	 30.378990	-11.948220	 8.725008	 6.112037	 4.509576	-0.364401	 4.968462	 1.518543	-9.347576	 5.168945	 0.703820	 2.021906
 0.000246	 0.019738	 1.271144	-0.000406	 0.007695	 0.157428	-11.189710	-1.859815	 179.506800	 1.463645	-12.704430	-0.743105	-4.508907	 71.898050	-1.863086	-2.385833	 28.452760	 0.000004	 11.057200	-1.991042	-179.717800	-1.454593	-12.382190	 0.710346	 4.375638	 71.556010	 1.837499	 2.384658	 28.388730	 0.000004	-3.663834	 2.233881	 0.213692	-1.866317	 5.358550	-0.586991	 5.638343	-6.734122	 1.338218	-91.776220	 78.527470	-180.000000	 73.837300	 46.594360	-57.256870	-8.076389	 1.547177	-3.864032	-30.209490	-10.852230	-4.429122	-2.635965	 4.993658	 6.788941	-5.165319	 0.784187	 3.516649	-5.225038	 0.466231	 0.424329	-0.000002	-3.783157	-0.089647	 5.408090	 3.705659	-0.175090	 89.782100	 78.203900	 180.000000	-65.049100	 40.917900	 57.969840	 5.534307	 3.838162	 9.789017	 30.587840	-13.037820	 8.289466	 6.112037	 4.509576	-0.364401	 4.968462	 1.518543	-9.347576	 5.168945	 0.703820	 2.021906
 0.000183	 0.019751	 1.271221	 0.000651	 0.008872	 0.132108	-11.367740	-1.861844	 179.542700	 1.463675	-12.702080	-0.742963	-4.509759	 71.901910	-1.862148	-2.385833	 28.452760	 0.000004	 11.234710	-2.035884	-179.711400	-1.453262	-12.486210	 0.716505	 4.388999	 71.613560	 1.823735	 2.384658	 28.388730	 0.000004	-3.076563	 2.059747	 0.178961	-1.569718	 5.964024	-0.453199	 4.739652	-7.563479	 1.160827	-91.776140	 78.527470	 180.000000	 74.116240	 46.834740	-57.442250	-8.060082	 1.326207	-3.311291	-30.240050	-11.240430	-4.434995	-2.635965	 4.993658	 6.788941	-5.165319	 0.784187	 3.516649	-5.225038	 0.466231	 0.424329	-0.000002	-3.783157	-0.089647	 4.520976	 3.420414	-0.135068	 89.782140	 78.203890	 180.000000	-64.175430	 39.659560	 59.117970	 3.724731	 3.389112	 9.531927	 30.312180	-14.433600	 7.548488	 6.112037	 4.509576	-0.364401	 4.968462	 1.518543	-9.347576	 5.168945	 0.703820	 2.021906
 0.000098	 0.019774	 1.271307	 0.001064	 0.009361	 0.098262	-11.541400	-1.859605	 179.585700	 1.463856	-12.688770	-0.742160	-4.510447	 71.900240	-1.861369	-2.385833	 28.452760	 0.000004	 11.409710	-2.091308	-179.698100	-1.451583	-12.616860	 0.724248	 4.406684	 71.684530	 1.805529	 2.384658	 28.388730	 0.000004	-2.339705	 1.921497	 0.150251	-1.188047	 6.448327	-0.312426	 3.591870	-8.237982	 0.899276	-91.776160	 78.527490	 180.000000	 74.380120	 47.088890	-57.942180	-8.152905	 0.868285	-2.167068	-30.169790	-11.700530	-4.425040	-2.635965	 4.993658	 6.788941	-5.165319	 0.784187	 3.516649	-5.225038	 0.466231	 0.424329	-0.000002	-3.783157	-0.089647	 3.413280	 3.209481	-0.095666	 89.782210	 78.203890	 179.999900	-61.437460	 37.584400	 58.621240	 0.752375	 3.829493	 12.766900	 29.005960	-16.152560	 6.128500	 6.112037	 4.509576	-0.364401	 4.968462	 1.518543	-9.347576	 5.168945	 0.703820	 2.021906
-0.000053	 0.019820	 1.271489	 0.001968	 0.014417	 0.068973	-11.717350	-1.839247	 179.617800	 1.464629	-12.630470	-0.738635	-4.511926	 71.875560	-1.859236	-2.385833	 28.452760	 0.000004	 11.585710	-2.151782	-179.686700	-1.449882	-12.747200	 0.731982	 4.429294	 71.755280	 1.781910	 2.384658	 28.388730	 0.000004	-1.467623	 1.819140	 0.115181	-0.728364	 6.793634	-0.166608	 2.215614	-8.725352	 0.558801	-91.776210	 78.527470	-180.000000	 74.580960	 47.335150	-58.694260	-8.168490	 0.190621	-0.475608	-30.173820	-12.268610	-4.427766	-2.635965	 4.993658	 6.788941	-5.165319	 0.784187	 3.516649	-5.225038	 0.466231	 0.424329	-0.000002	-3.783157	-0.089647	 2.105979	 3.068183	-0.056421	 89.782000	 78.203870	-179.999900	-57.364730	 35.140320	 60.923240	-2.436004	 2.950724	 12.346080	 27.118900	-17.769240	 4.436457	 6.112037	 4.509576	-0.364401	 4.968462	 1.518543	-9.347576	 5.168945	 0.703820	 2.021906
-0.000189	 0.019865	 1.271456	 0.001306	 0.016638	 0.031177	-11.890650	-1.828320	 179.660800	 1.465106	-12.593920	-0.736427	-4.514709	 71.862300	-1.855893	-2.385833	 28.452760	 0.000004	 11.762810	-2.221990	-179.669700	-1.447778	-12.906960	 0.741472	 4.455499	 71.840970	 1.754673	 2.384658	 28.388730	 0.000004	-0.515029	 1.720325	 0.105261	-0.218063	 7.059583	-0.052706	 0.704014	-9.015741	 0.182867	-91.776220	 78.527450	-180.000000	 74.312160	 47.398630	-58.223210	-8.168493	 0.190329	-0.474877	-30.181500	-12.928870	-4.432023	-2.635965	 4.993658	 6.788941	-5.165319	 0.784187	 3.516649	-5.225038	 0.466231	 0.424329	-0.000002	-3.783157	-0.089647	 0.681605	 2.999213	-0.017858	 89.782070	 78.203870	-180.000000	-51.457460	 31.649300	 63.215570	-5.872930	 2.300070	 13.083450	 24.442620	-19.090400	 2.493166	 6.112037	 4.509576	-0.364401	 4.968462	 1.518543	-9.347576	 5.168945	 0.703820	 2.021906
-0.000290	 0.019902	 1.271092	-0.000821	 0.017990	-0.012066	-12.056890	-1.818970	 179.711000	 1.465567	-12.559080	-0.734319	-4.511998	 71.849780	-1.858625	-2.385833	 28.452760	 0.000004	 11.936210	-2.283027	-179.647600	-1.445849	-13.051290	 0.750058	 4.475686	 71.918310	 1.733870	 2.384658	 28.388730	 0.000004	 0.436249	 1.724032	 0.064406	 0.288959	 7.052310	 0.125169	-0.813886	-9.005866	-0.232418	-91.776170	 78.527470	 180.000000	 73.841770	 47.381620	-57.612740	-8.168517	 0.190519	-0.475236	-30.193250	-13.656010	-4.437901	-2.635965	 4.993658	 6.788941	-5.165319	 0.784187	 3.516649	-5.225038	 0.466231	 0.424329	-0.000002	-3.783157	-0.089647	-0.739830	 3.000314	 0.019361	 89.782100	 78.203890	-180.000000	-44.155860	 27.781900	 66.267530	-9.412634	 1.470619	 13.172270	 21.343400	-20.047710	 0.498987	 6.112037	 4.509576	-0.364401	 4.968462	 1.518543	-9.347576	 5.168945	 0.703820	 2.021906
